REM DIRINDEX 1\5,1\2\6,1\2\7,1\3\8,1\3\9,1\3\10,1\3\11,1\4\12,1\4\13,1\4\14
REM DIRNAME folder01,folder02,folder03,folder04,folder05,folder06,folder07,folder08,folder09,folder10,folder11,folder12,folder13,folder14
TITLE ""
FILE "4Q_t_258-272.mp3" MP3
  TRACK 01 AUDIO
    TITLE "5:cjc042_1510"
    INDEX 01 00:00:00
  TRACK 02 AUDIO
    TITLE "0:"
    INDEX 01 00:05:34
  TRACK 03 AUDIO
    TITLE "5:cjc042_1511"
    INDEX 01 00:06:37
  TRACK 04 AUDIO
    TITLE "0:"
    INDEX 01 00:07:60
  TRACK 05 AUDIO
    TITLE "6:cjc042_1512"
    INDEX 01 00:08:26
  TRACK 06 AUDIO
    TITLE "0:"
    INDEX 01 00:09:24
  TRACK 07 AUDIO
    TITLE "7:cjc042_1513"
    INDEX 01 00:09:67
  TRACK 08 AUDIO
    TITLE "0:"
    INDEX 01 00:14:37
  TRACK 09 AUDIO
    TITLE "6:cjc042_1514"
    INDEX 01 00:15:11
  TRACK 10 AUDIO
    TITLE "0:"
    INDEX 01 00:16:18
  TRACK 11 AUDIO
    TITLE "7:cjc042_1515"
    INDEX 01 00:16:65
  TRACK 12 AUDIO
    TITLE "0:"
    INDEX 01 00:21:72
  TRACK 13 AUDIO
    TITLE "6:cjc042_1516"
    INDEX 01 00:22:42
  TRACK 14 AUDIO
    TITLE "0:"
    INDEX 01 00:23:40
  TRACK 15 AUDIO
    TITLE "7:cjc042_1517"
    INDEX 01 00:24:12
  TRACK 16 AUDIO
    TITLE "0:"
    INDEX 01 00:27:73
  TRACK 17 AUDIO
    TITLE "6:cjc042_1518"
    INDEX 01 00:28:45
  TRACK 18 AUDIO
    TITLE "0:"
    INDEX 01 00:29:50
  TRACK 19 AUDIO
    TITLE "7:cjc042_1519"
    INDEX 01 00:30:20
  TRACK 20 AUDIO
    TITLE "0:"
    INDEX 01 00:33:73
  TRACK 21 AUDIO
    TITLE "6:cjc042_1520"
    INDEX 01 00:34:43
  TRACK 22 AUDIO
    TITLE "0:"
    INDEX 01 00:35:66
  TRACK 23 AUDIO
    TITLE "7:cjc042_1521"
    INDEX 01 00:36:40
  TRACK 24 AUDIO
    TITLE "0:"
    INDEX 01 00:40:60
  TRACK 25 AUDIO
    TITLE "6:cjc042_1522"
    INDEX 01 00:41:32
  TRACK 26 AUDIO
    TITLE "0:"
    INDEX 01 00:42:41
  TRACK 27 AUDIO
    TITLE "7:cjc042_1523"
    INDEX 01 00:43:17
  TRACK 28 AUDIO
    TITLE "0:"
    INDEX 01 00:47:23
  TRACK 29 AUDIO
    TITLE "6:cjc042_1524"
    INDEX 01 00:47:72
  TRACK 30 AUDIO
    TITLE "0:"
    INDEX 01 00:49:12
  TRACK 31 AUDIO
    TITLE "7:cjc042_1525"
    INDEX 01 00:49:61
  TRACK 32 AUDIO
    TITLE "0:"
    INDEX 01 00:52:61
  TRACK 33 AUDIO
    TITLE "6:cjc042_1526"
    INDEX 01 00:53:35
  TRACK 34 AUDIO
    TITLE "0:"
    INDEX 01 00:54:42
  TRACK 35 AUDIO
    TITLE "7:cjc042_1527"
    INDEX 01 00:55:14
  TRACK 36 AUDIO
    TITLE "0:"
    INDEX 01 00:58:07
  TRACK 37 AUDIO
    TITLE "6:cjc042_1528"
    INDEX 01 00:58:54
  TRACK 38 AUDIO
    TITLE "0:"
    INDEX 01 00:59:61
  TRACK 39 AUDIO
    TITLE "7:cjc042_1529"
    INDEX 01 01:00:31
  TRACK 40 AUDIO
    TITLE "0:"
    INDEX 01 01:01:66
  TRACK 41 AUDIO
    TITLE "6:cjc042_1530"
    INDEX 01 01:02:36
  TRACK 42 AUDIO
    TITLE "0:"
    INDEX 01 01:03:37
  TRACK 43 AUDIO
    TITLE "7:cjc042_1531"
    INDEX 01 01:04:09
  TRACK 44 AUDIO
    TITLE "0:"
    INDEX 01 01:11:23
  TRACK 45 AUDIO
    TITLE "6:cjc042_1532"
    INDEX 01 01:11:68
  TRACK 46 AUDIO
    TITLE "0:"
    INDEX 01 01:12:73
  TRACK 47 AUDIO
    TITLE "7:cjc042_1533"
    INDEX 01 01:13:45
  TRACK 48 AUDIO
    TITLE "0:"
    INDEX 01 01:15:54
  TRACK 49 AUDIO
    TITLE "6:cjc042_1534"
    INDEX 01 01:16:26
  TRACK 50 AUDIO
    TITLE "0:"
    INDEX 01 01:17:35
  TRACK 51 AUDIO
    TITLE "7:cjc042_1535"
    INDEX 01 01:18:09
  TRACK 52 AUDIO
    TITLE "0:"
    INDEX 01 01:20:28
  TRACK 53 AUDIO
    TITLE "6:cjc042_1536"
    INDEX 01 01:20:69
  TRACK 54 AUDIO
    TITLE "0:"
    INDEX 01 01:22:07
  TRACK 55 AUDIO
    TITLE "7:cjc042_1537"
    INDEX 01 01:22:54
  TRACK 56 AUDIO
    TITLE "0:"
    INDEX 01 01:25:58
  TRACK 57 AUDIO
    TITLE "6:cjc042_1538"
    INDEX 01 01:26:27
  TRACK 58 AUDIO
    TITLE "0:"
    INDEX 01 01:27:38
  TRACK 59 AUDIO
    TITLE "7:cjc042_1539"
    INDEX 01 01:28:10
  TRACK 60 AUDIO
    TITLE "0:"
    INDEX 01 01:29:27
  TRACK 61 AUDIO
    TITLE "6:cjc042_1540"
    INDEX 01 01:30:01
  TRACK 62 AUDIO
    TITLE "0:"
    INDEX 01 01:31:10
  TRACK 63 AUDIO
    TITLE "7:cjc042_1541"
    INDEX 01 01:31:55
  TRACK 64 AUDIO
    TITLE "0:"
    INDEX 01 01:35:31
